<?xml version="1.0" encoding="UTF-8"?>
<svg width="25px" height="18px" viewBox="0 0 25 18" version="1.1" xmlns="http://www.w3.org/2000/svg" xmlns:xlink="http://www.w3.org/1999/xlink">
    <!-- Generator: Sketch 46.2 (44496) - http://www.bohemiancoding.com/sketch -->
    <title>e_mail_slice</title>
    <desc>Created with Sketch.</desc>
    <defs></defs>
    <g id="Page-1" stroke="none" stroke-width="1" fill="none" fill-rule="evenodd">
        <g id="Artboard" transform="translate(-601.000000, -13917.000000)" fill="#677897">
            <g id="e-mail" transform="translate(601.000000, 13917.000000)">
                <path d="M25,3.16832267 L25,15.7182131 C25,16.9766157 23.980684,18 22.7272633,18 L2.27273673,18 C1.01931598,18 0,16.9766157 0,15.7182131 L0,3.16832267 C0,2.73931516 0.126134839,2.34346088 0.331774993,2 L12.1420492,11.5984583 C12.2465651,11.6828351 12.3738652,11.7250966 12.5,11.7250966 C12.6261348,11.7250966 12.7534349,11.6828351 12.8579508,11.5984583 L24.6693486,2" id="Fill-1"></path>
                <path d="M12.4999578,10 L1,0.325480607 C1.33731883,0.123246612 1.72190446,0 2.1375445,0 L22.8623923,0 C23.2780112,0 23.6626179,0.123246612 24,0.325480607 L12.4999578,10 Z" id="Fill-4"></path>
            </g>
        </g>
    </g>
</svg>