<?xml version="1.0" encoding="UTF-8"?>
<svg width="528px" height="200px" viewBox="0 0 528 200" version="1.1" xmlns="http://www.w3.org/2000/svg" xmlns:xlink="http://www.w3.org/1999/xlink">
    <!-- Generator: Sketch 46.2 (44496) - http://www.bohemiancoding.com/sketch -->
    <title>Token allocation  plan</title>
    <desc>Created with Sketch.</desc>
    <defs></defs>
    <g id="Page-1" stroke="none" stroke-width="1" fill="none" fill-rule="evenodd">
        <g id="官网更新" transform="translate(-138.000000, -10536.000000)">
            <g id="inc-token" transform="translate(103.000000, 10332.000000)">
                <g id="Token-allocation--plan" transform="translate(0.000000, 169.000000)">
                    <g id="Page-1">
                        <g id="Group-25" transform="translate(135.293262, 135.393377) rotate(-332.000000) translate(-135.293262, -135.393377) translate(35.293262, 35.393377)">
                            <path d="M143.871645,55.965389 L170.703706,29.2113461 C163.075471,21.6052909 154.518412,15.4919416 145.400765,10.8578081 C135.950765,6.05416895 125.896059,2.84646412 115.636059,1.23469362 C105.276059,-0.392913049 94.7101765,-0.392913049 84.3495882,1.23469362 C74.0895882,2.84646412 64.0354706,6.05416895 54.5848824,10.8578081 L71.3065024,43.5800337 C94.8166091,32.0757411 124.004465,36.0953687 143.547499,55.6389166 C143.656026,55.7474442 143.764075,55.8562692 143.871645,55.965389 Z" id="Combined-Shape" fill="#EB2567"></path>
                            <path d="M54.6470503,144.930318 L29.2823529,170.221264 C21.6541176,162.615209 15.5229412,154.083617 10.8752941,144.991895 C6.05764706,135.569372 2.84058824,125.543901 1.22411765,115.31432 C-0.408235294,104.983856 -0.408235294,94.4486955 1.22411765,84.118232 C2.84058824,73.8886507 6.05764706,63.8631802 10.8752941,54.4406572 C15.5229412,45.3489343 21.6541176,36.8173427 29.2823529,29.2112875 C36.9105882,21.6052322 45.4670588,15.4918829 54.5852941,10.8577494 L71.3066825,43.5799456 C65.2191143,46.558775 59.5122179,50.578432 54.4520031,55.6389166 C29.8493323,80.2422349 29.8493323,120.132775 54.4520031,144.736093 C54.5169126,144.801006 54.5819285,144.865747 54.6470503,144.930318 Z" id="Combined-Shape" fill="#4F29FE"></path>
                            <path d="M161.865038,104.321854 L199.703353,107.138338 C200.274529,99.4630731 199.965118,91.7350206 198.761588,84.1184079 C197.145118,73.8888267 193.928647,63.8633561 189.111,54.4402466 C184.462765,45.3485237 178.331588,36.8175187 170.703353,29.2114634 L143.871529,55.9652707 C156.999963,69.2827652 162.997799,86.9917658 161.865038,104.321854 Z" id="Combined-Shape" fill="#FFC000"></path>
                            <path d="M128.649477,155.794442 L145.400588,188.574802 C135.950588,193.378441 125.895882,196.586146 115.636471,198.197917 C105.275882,199.825523 94.71,199.825523 84.3494118,198.197917 C74.09,196.586146 64.0352941,193.378441 54.5852941,188.575389 C45.4670588,183.940669 36.9105882,177.82732 29.2823529,170.221264 L54.6470503,144.930318 C74.7360818,164.849278 104.897615,168.470653 128.649477,155.794442 Z" id="Combined-Shape" fill="#4986FF"></path>
                            <path d="M128.649568,155.794393 L145.400824,188.575037 C154.518471,183.940317 163.075529,177.826968 170.703765,170.221499 C178.331412,162.615444 184.462588,154.083852 189.110824,144.992129 C193.928471,135.569606 197.145529,125.544136 198.761412,115.313968 C199.190235,112.600117 199.499647,109.872776 199.703176,107.138397 L161.865033,104.321925 C160.902928,119.040889 154.797083,133.486516 143.547499,144.736093 C139.033196,149.250514 134.004268,152.936614 128.649568,155.794393 Z" id="Combined-Shape" fill="#A93AFF"></path>
                        </g>
                        <text id="Token-allocation-pla" font-family="PingFangSC-Semibold, PingFang SC" font-size="14" font-weight="500" fill="#FFFFFF">
                            <tspan x="80.34" y="130">Token allocation </tspan>
                            <tspan x="121.437" y="150">plan</tspan>
                        </text>
                    </g>
                    <text id="Presale-:-30%" font-family="PingFangSC-Regular, PingFang SC" font-size="14" font-weight="normal" fill="#FFFFFF">
                        <tspan x="347" y="89">Presale : 30%</tspan>
                    </text>
                    <text id="Private-sale-:-20%" font-family="PingFangSC-Regular, PingFang SC" font-size="14" font-weight="normal" fill="#FFFFFF">
                        <tspan x="347" y="115">Private sale : 20%</tspan>
                    </text>
                    <text id="Founding-team-:-16%" font-family="PingFangSC-Regular, PingFang SC" font-size="14" font-weight="normal" fill="#FFFFFF">
                        <tspan x="347" y="141">Founding team : 16%</tspan>
                    </text>
                    <text id="Industrial-investmen" font-family="PingFangSC-Regular, PingFang SC" font-size="14" font-weight="normal" fill="#FFFFFF">
                        <tspan x="347" y="167">Industrial investment : 20%</tspan>
                    </text>
                    <text id="Market-operation-and" font-family="PingFangSC-Regular, PingFang SC" font-size="14" font-weight="normal" line-spacing="26" fill="#FFFFFF">
                        <tspan x="347" y="190">Market operation and technology </tspan>
                        <tspan x="347" y="216">development : 14%</tspan>
                    </text>
                    <rect id="Rectangle-9" fill="#4F29FE" x="305" y="76" width="16" height="16"></rect>
                    <rect id="Rectangle-9-Copy" fill="#4986FF" x="305" y="102" width="16" height="16"></rect>
                    <rect id="Rectangle-9-Copy-2" fill="#A93AFF" x="305" y="128" width="16" height="16"></rect>
                    <rect id="Rectangle-9-Copy-3" fill="#EB2567" x="305" y="154" width="16" height="16"></rect>
                    <rect id="Rectangle-9-Copy-4" fill="#FFC000" x="305" y="180" width="16" height="16"></rect>
                </g>
            </g>
        </g>
    </g>
</svg>