<?xml version="1.0" encoding="UTF-8"?>
<svg width="130px" height="130px" viewBox="0 0 130 130" version="1.1" xmlns="http://www.w3.org/2000/svg" xmlns:xlink="http://www.w3.org/1999/xlink">
    <!-- Generator: Sketch 46.2 (44496) - http://www.bohemiancoding.com/sketch -->
    <title>innovations1_copy 3_slice</title>
    <desc>Created with Sketch.</desc>
    <defs>
        <linearGradient x1="0%" y1="50%" x2="100%" y2="50%" id="linearGradient-1">
            <stop stop-color="#4F29FE" offset="0%"></stop>
            <stop stop-color="#A93AFF" offset="100%"></stop>
        </linearGradient>
    </defs>
    <g id="Page-1" stroke="none" stroke-width="1" fill="none" fill-rule="evenodd">
        <g id="Artboard" transform="translate(-587.000000, -564.000000)">
            <g id="innovations1-copy-3" transform="translate(587.000000, 564.000000)">
                <circle id="Oval-5" stroke="url(#linearGradient-1)" stroke-width="2" fill-opacity="0.2" fill="#3931A7" cx="65" cy="65" r="65"></circle>
                <path d="M65.8388838,38.4090909 C65.737592,38.4274546 65.624019,38.4331653 65.5161922,38.4449225 L62.0454545,59.1242267 C63.4128377,60.2412764 64.3758424,61.771733 64.7874319,63.4824673 L100.436518,68.9393939 C100.442715,68.9271888 100.448349,68.9153196 100.454545,68.8974038 L65.8388838,38.4090909 Z M62.0339303,37.4242424 L40.9781581,44.6504696 C40.8675254,45.2994935 40.6814912,45.9185379 40.3787879,46.470643 L52.2220836,59.0909091 C53.5313469,58.0835031 55.1317892,57.4649164 56.8891808,57.4649164 C57.5528672,57.4649164 58.1813224,57.5739644 58.7923265,57.7379367 L62.0454545,37.4305359 C62.0399668,37.4242424 62.0399668,37.4242424 62.0339303,37.4242424 L62.0339303,37.4242424 Z M38.599314,49.2424242 L34.469697,89.3305683 C34.7414318,89.4136893 35.0078072,89.5028514 35.2616393,89.6212121 L51.2121212,70.0694333 C50.0451324,68.6809884 49.3132842,66.925603 49.3132842,64.9796993 C49.3132842,63.5501973 49.7243644,62.2274214 50.3956623,61.0589171 L38.599314,49.2424242 Z M67.9545455,86.0101771 L59.0909754,73.4903596 C58.4751733,73.6477318 57.8480944,73.7564886 57.1856373,73.7564886 C55.9194288,73.7564886 54.7413342,73.4239415 53.6802088,72.8787879 L38.4090909,92.5757576 L67.7848406,87.6502028 C67.7787599,87.5650689 67.7610708,87.4803915 67.7610708,87.3957141 C67.7610708,86.9178915 67.8431041,86.4582142 67.9545455,86.0101771 L67.9545455,86.0101771 Z M69.8346071,82.2891705 C70.711685,81.6409423 71.787823,81.2431684 72.9629948,81.2431684 C74.3837661,81.2431684 75.6705439,81.8100789 76.6233859,82.7272727 L97.5,71.9888101 L64.8933934,66.969697 C64.5246083,68.8511344 63.483871,70.4814564 62.0454545,71.6324664 L69.8346071,82.2891705 Z M104.984721,76.1594381 C103.347984,76.1594381 101.900028,75.3950478 100.925363,74.2125804 L78.2043938,86.034212 C78.2518678,86.3264491 78.2932125,86.6252204 78.2932125,86.9359335 C78.2932125,89.9169995 75.9003467,92.3361231 72.9515006,92.3361231 C71.314652,92.3361231 69.8611242,91.5712821 68.8804415,90.4006439 L38.2240773,95.4363821 C38.0290551,98.2378698 35.7418356,100.454545 32.9175809,100.454545 C29.9687348,100.454545 27.5757576,98.0346333 27.5757576,95.0540179 C27.5757576,92.7242328 29.0414325,90.7593497 31.0800266,90.0005923 L35.1690278,49.1406903 C32.4095203,48.9253992 30.2346336,46.6199484 30.2346336,43.7761009 C30.2346336,40.7954856 32.6280566,38.376024 35.5764568,38.376024 C37.6390109,38.376024 39.4059114,39.5646876 40.2922034,41.2910719 L59.9694904,34.7441279 C59.7744683,34.1887197 59.6329379,33.6030063 59.6329379,32.9758345 C59.6329379,29.9947685 62.0141024,27.5757576 64.9508014,27.5757576 C67.8873889,27.5757576 70.2689991,29.9947685 70.2689991,32.9758345 C70.2689991,34.3972512 69.7197053,35.6757039 68.8390968,36.6381485 L101.971462,66.3267986 C102.827776,65.7173142 103.862062,65.3529754 104.984721,65.3529754 C107.921866,65.3529754 110.30303,67.772099 110.30303,70.7530523 C110.30303,73.7465107 107.921866,76.1594381 104.984721,76.1594381 L104.984721,76.1594381 Z" id="Fill-1" fill="url(#linearGradient-1)"></path>
            </g>
        </g>
    </g>
</svg>