<?xml version="1.0" encoding="UTF-8"?>
<svg width="130px" height="130px" viewBox="0 0 130 130" version="1.1" xmlns="http://www.w3.org/2000/svg" xmlns:xlink="http://www.w3.org/1999/xlink">
    <!-- Generator: Sketch 46.2 (44496) - http://www.bohemiancoding.com/sketch -->
    <title>innovations1_copy_slice</title>
    <desc>Created with Sketch.</desc>
    <defs>
        <linearGradient x1="0%" y1="50%" x2="100%" y2="50%" id="linearGradient-1">
            <stop stop-color="#4F29FE" offset="0%"></stop>
            <stop stop-color="#A93AFF" offset="100%"></stop>
        </linearGradient>
    </defs>
    <g id="Page-1" stroke="none" stroke-width="1" fill="none" fill-rule="evenodd">
        <g id="Artboard" transform="translate(-587.000000, -265.000000)">
            <g id="innovations1-copy" transform="translate(587.000000, 265.000000)">
                <circle id="Oval-5" stroke="url(#linearGradient-1)" stroke-width="2" fill-opacity="0.2" fill="#3931A7" cx="65" cy="65" r="65"></circle>
                <path d="M96.9367664,68.6899117 L103.200111,77.5205549 C103.200111,77.5205549 103.938881,78.7189648 102.638352,79.8360589 C101.190069,81.0839517 100.239997,80.0472278 100.239997,80.0472278 L95.7029311,74.1383851 C95.7384802,75.3877487 95.6818534,76.4590371 95.6644459,77.0692207 L95.6648653,77.0692207 C95.5318972,82.0759203 93.895697,86.5631024 90.8437216,90.5281404 C87.8840269,94.3649012 83.7857139,97.1913079 79.0597871,98.5081195 C80.5493868,98.2040783 78.1067788,98.9804655 75.5075033,99.2562459 C75.065185,99.3011061 74.6355553,99.3622506 74.1921884,99.3897761 C71.8991171,99.5506216 71.1433589,95.5825369 74.4347399,95.1802654 C76.5103222,94.9270728 78.3942123,94.462186 80.1823612,93.7990525 C81.0564065,93.6930478 84.005405,91.8722674 86.2668071,89.4083148 C87.5857924,88.5780322 89.7310047,85.3988367 90.8035585,81.5218383 C91.2457719,79.9151685 91.5331006,78.2761404 91.5222995,76.6028631 C91.5184195,76.1990156 91.3781109,75.1212136 91.3344873,73.7961024 L87.4311173,78.4821614 C87.4311173,78.4821614 86.3098016,79.9874492 84.9100707,79.117034 C82.9698684,77.9133711 84.0421075,76.3469389 84.0421075,76.3469389 L91.0096172,67.8702401 C91.0096172,67.8702401 92.2405162,66.5230664 93.927366,66.6390517 C95.8557187,66.7725819 96.9367664,68.6899117 96.9367664,68.6899117 Z M66.4963216,52.1650083 C66.4815357,47.2354221 66.5036621,42.2952249 66.4848914,37.3688955 C66.4741952,35.3079498 67.0706643,33.5027182 68.4642082,31.9850335 C69.8237759,30.5010727 71.5265651,29.5810696 73.5501347,29.5703536 C81.138442,29.5371549 88.7312584,29.5371549 96.3274305,29.5703536 C98.2739247,29.5810696 99.9104395,30.4346753 101.259311,31.8188299 C102.685258,33.2802029 103.404523,35.0424653 103.404523,37.080403 C103.404523,42.2086561 103.4148,47.3266134 103.404523,52.4543412 C103.396764,56.0448433 100.886098,59.0468039 97.5157546,59.8039654 C97.1118167,59.8958921 96.6915199,59.9447446 96.2602124,59.9447446 L96.2503551,59.9447446 C92.467789,59.9341337 88.6985407,59.9447446 84.9275097,59.9447446 C81.2232773,59.9447446 77.5308946,59.9225772 73.8265574,59.9554607 C70.4324093,59.9763674 67.1811914,57.3186857 66.602025,53.8041414 C66.5201258,53.2620361 66.4848914,52.7133121 66.4959022,52.1650083 L66.4963216,52.1650083 Z M70.094536,37.6726216 C70.0850982,42.3851555 70.0850982,47.1107168 70.0915998,51.8231458 C70.0915998,52.6501715 70.2394587,53.4519831 70.7068396,54.1677512 C71.5323327,55.415749 72.7022006,55.9574341 74.1801604,55.9447219 C77.7512149,55.9574341 81.3350628,55.9574341 84.9062222,55.9574341 C88.5883281,55.9574341 92.2585844,55.9688855 95.9406903,55.9447219 C98.0097711,55.9340059 99.7580714,54.4028736 99.77076,52.0209722 C99.8075675,47.1718613 99.7834486,42.323906 99.7834486,37.4747951 C99.7834486,35.255 98.0596866,33.5395939 95.8428518,33.5395939 L74.0407955,33.5395939 C73.4497794,33.5400142 72.8881253,33.6672408 72.4076364,33.8855538 C70.7966036,34.6259057 70.0948506,35.945764 70.0990452,37.6758784 L70.094536,37.6726216 Z M65.4733792,77.835018 C65.4881651,82.7646042 65.4660387,87.7046963 65.4848095,92.6311308 C65.4955056,94.6920764 64.8990366,96.497203 63.5054927,98.0149928 C62.1459249,99.4989535 60.4431357,100.418957 58.4195662,100.429568 C50.8312589,100.462871 43.2384425,100.462871 35.6422704,100.429568 C33.6957762,100.418957 32.0592613,99.5653509 30.7103897,98.1811964 C29.2844427,96.7198234 28.5651774,94.9574559 28.5651774,92.9196232 C28.5651774,87.7912651 28.5549007,82.6733078 28.5651774,77.545685 C28.5729373,73.955183 31.0836024,70.9532223 34.4539463,70.1960609 C34.8578842,70.1041341 35.2781809,70.0552816 35.7094885,70.0552816 L35.7193458,70.0552816 C39.501807,70.0657875 43.2711602,70.0552816 47.0421912,70.0552816 C50.7464235,70.0552816 54.4388062,70.0774491 58.1431434,70.0444605 C61.5372916,70.0235538 64.7885094,72.6813406 65.3676759,76.1957798 C65.449575,76.7378851 65.4848095,77.2867142 65.4737987,77.835018 L65.4733792,77.835018 Z M61.8751649,92.3272997 C61.8846027,87.6148707 61.8846027,82.8892044 61.8781011,78.1768805 C61.8781011,77.3498547 61.7302422,76.5480432 61.2628613,75.83217 C60.4373682,74.5841722 59.2675002,74.0424871 57.7895405,74.0551993 C54.218486,74.0424871 50.634638,74.0424871 47.0634787,74.0424871 C43.3813727,74.0424871 39.7111165,74.0311407 36.0290105,74.0551993 C33.9599298,74.0660204 32.2116294,75.5971527 32.1989408,77.9790541 C32.1621334,82.8280599 32.1862522,87.6761202 32.1862522,92.5252311 C32.1862522,94.7450263 33.9100143,96.4604323 36.1268491,96.4604323 L57.9289053,96.4604323 C58.5199215,96.4600121 59.0815755,96.3326804 59.5620645,96.1144725 C61.1730973,95.3740155 61.8748503,94.0541572 61.8706557,92.3241479 L61.8751649,92.3272997 Z M35.032882,61.3101146 L28.7696421,52.4794714 C28.7696421,52.4794714 28.0307671,51.2810615 29.3312962,50.1639674 C30.7796842,48.9159695 31.7296514,49.9526934 31.7296514,49.9526934 L36.2667173,55.8615361 C36.2311682,54.6122775 36.287795,53.5408841 36.3052025,52.9308056 L36.3047831,52.9308056 C36.4378561,47.9241059 38.0739515,43.4369239 41.1260317,39.4717808 C44.0856215,35.6351251 48.1839345,32.8087183 52.9098613,31.4918017 C51.4203665,31.795948 53.8629745,31.0194557 56.4621451,30.7436754 C56.9044634,30.6989201 57.334198,30.6377757 57.7774601,30.6102502 C60.0705313,30.4494046 60.8262895,34.4173843 57.5349086,34.8196558 C55.4593262,35.0728484 53.5754361,35.5378403 51.7873921,36.2009738 C50.9133468,36.3068734 47.9643483,38.1277589 45.7028413,40.5917115 C44.383856,41.4219941 42.2386437,44.6011895 41.1661948,48.4780829 C40.7238765,50.0847527 40.4366527,51.7238859 40.4473489,53.3970581 C40.4512289,53.8010106 40.5915375,54.8787076 40.6351612,56.2038188 L44.538636,51.5178648 C44.538636,51.5178648 45.6598468,50.0125771 47.0595777,50.8829923 C48.9998849,52.0866552 47.9275409,53.6530873 47.9275409,53.6530873 L40.9601361,62.1296811 C40.9601361,62.1296811 39.729237,63.4769599 38.0423873,63.3608695 C36.1139298,63.2274444 35.032882,61.3101146 35.032882,61.3101146 Z" id="Combined-Shape" fill="url(#linearGradient-1)"></path>
            </g>
        </g>
    </g>
</svg>