<?xml version="1.0" encoding="UTF-8"?>
<svg width="130px" height="130px" viewBox="0 0 130 130" version="1.1" xmlns="http://www.w3.org/2000/svg" xmlns:xlink="http://www.w3.org/1999/xlink">
    <!-- Generator: Sketch 46.2 (44496) - http://www.bohemiancoding.com/sketch -->
    <title>innovations1_slice</title>
    <desc>Created with Sketch.</desc>
    <defs>
        <linearGradient x1="0%" y1="50%" x2="100%" y2="50%" id="linearGradient-1">
            <stop stop-color="#4F29FE" offset="0%"></stop>
            <stop stop-color="#A93AFF" offset="100%"></stop>
        </linearGradient>
        <circle id="path-2" cx="65" cy="65" r="65"></circle>
    </defs>
    <g id="Page-1" stroke="none" stroke-width="1" fill="none" fill-rule="evenodd">
        <g id="Artboard" transform="translate(-5.000000, -265.000000)">
            <g id="innovations1" transform="translate(5.000000, 265.000000)">
                <g id="Oval-5">
                    <use fill-opacity="0.2" fill="#3931A7" fill-rule="evenodd" xlink:href="#path-2"></use>
                    <circle stroke="url(#linearGradient-1)" stroke-width="2" cx="65" cy="65" r="64"></circle>
                </g>
                <path d="M86.3724911,97.6534829 L86.3724911,58.8478945 C86.3724911,56.7569936 88.0675013,55.0619835 90.1584022,55.0619835 C92.2493031,55.0619835 93.9443133,56.7569936 93.9443133,58.8478945 L93.9490237,58.8478945 L93.9490237,97.6534829 L93.9443133,97.6534829 C93.9443133,99.7443838 92.2493031,101.439394 90.1584022,101.439394 C88.0675013,101.439394 86.3724911,99.7443838 86.3724911,97.6534829 Z M32.4244548,97.5573705 L32.4244548,65.5693513 C32.4236589,65.5374105 32.4232586,65.5053714 32.4232586,65.4732389 C32.4232586,63.3823379 34.1182687,61.6873278 36.2091696,61.6873278 C38.3000706,61.6873278 39.9950807,63.3823379 39.9950807,65.4732389 L40.0009874,65.4732389 L40.0009874,97.6534829 L39.9950807,97.6534829 C39.9950807,99.7443838 38.3000706,101.439394 36.2091696,101.439394 C34.1182687,101.439394 32.4232586,99.7443838 32.4232586,97.6534829 C32.4232586,97.6213503 32.4236589,97.5893113 32.4244548,97.5573705 Z M59,96 L59,74 C59.0328599,72.0949615 60.587246,70.5606061 62.5,70.5606061 C64.412754,70.5606061 65.9671401,72.0949615 65.9994858,74 L66,96 C65.9998282,96.020161 66,96.0403634 66,96.0606061 C66,97.9936027 64.4329966,99.5606061 62.5,99.5606061 C60.5670034,99.5606061 59,97.9936027 59,96.0606061 C59,96.0403634 59.0001718,96.020161 59.0005142,96 Z M57.8126578,63.5159141 L31.4486823,49.5336408 C30.5696787,49.0965952 30.1305542,48.2225038 31.0095577,47.3486938 C31.4486823,46.4749775 32.3277801,46.038307 33.2064064,46.4749775 L59.570382,60.457626 C60.4491025,60.8942965 61.3277288,60.8942965 61.7672306,60.457626 L86.8127009,36.8625984 L81.9791246,32.0560337 L97.7974156,28.5606061 C98.2368231,28.5606061 98.6767021,29.4340409 98.6767021,29.8714618 L94.2822503,45.1641218 L89.4490513,39.9208866 L64.403581,63.0784933 C63.0850757,63.9525847 61.7668533,64.389349 60.4487253,64.389349 C59.570382,64.389349 58.6913784,63.9525847 57.8126578,63.5159141 Z" id="Combined-Shape" fill="url(#linearGradient-1)"></path>
            </g>
        </g>
    </g>
</svg>