<?xml version="1.0" encoding="UTF-8"?>
<svg width="132px" height="132px" viewBox="0 0 132 132" version="1.1" xmlns="http://www.w3.org/2000/svg" xmlns:xlink="http://www.w3.org/1999/xlink">
    <!-- Generator: Sketch 46.2 (44496) - http://www.bohemiancoding.com/sketch -->
    <title>innovations1 copy</title>
    <desc>Created with Sketch.</desc>
    <defs>
        <linearGradient x1="0%" y1="50%" x2="100%" y2="50%" id="linearGradient-1">
            <stop stop-color="#4F29FE" offset="0%"></stop>
            <stop stop-color="#A93AFF" offset="100%"></stop>
        </linearGradient>
    </defs>
    <g id="Page-1" stroke="none" stroke-width="1" fill="none" fill-rule="evenodd">
        <g id="首页" transform="translate(-721.000000, -6324.000000)">
            <g id="innovations" transform="translate(135.000000, 6060.000000)">
                <g id="innovations1-copy" transform="translate(587.000000, 265.000000)">
                    <circle id="Oval-5" stroke="url(#linearGradient-1)" stroke-width="2" fill-opacity="0.2" fill="#3931A7" cx="65" cy="65" r="65"></circle>
                    <path d="M100.729843,46.8116269 L100.696845,46.7565463 L100.696845,47.197572 C100.703064,47.3113503 100.703064,47.4253825 100.696845,47.5390973 L100.696845,47.6935515 C100.671336,47.7952095 100.638402,47.894583 100.597726,47.9910376 C100.568028,48.0517659 100.53503,48.1107174 100.498542,48.1675113 C100.45444,48.2557165 100.399169,48.3548997 100.355066,48.4210853 C100.311154,48.4872708 100.284375,48.5088462 100.222949,48.5863906 C100.161459,48.6639984 100.09502,48.7376085 100.024392,48.8067765 L99.8701918,48.9279793 L99.6607205,49.0933481 L99.418315,49.2257192 L99.2530096,49.3139244 L88.9685437,53.5576071 C87.7890696,53.9802303 86.4780493,53.4738439 85.8891054,52.3677895 C85.3001616,51.2617985 85.6117352,49.8912556 86.620637,49.1486191 C86.7537062,49.0630791 86.8937557,48.9892152 87.0395163,48.9279793 L89.6519115,47.8256688 L89.6519115,47.7265491 C86.8412133,47.6603635 77.8022802,47.9910376 71.331957,53.9544668 C66.4157576,58.4958895 63.9907507,65.3742408 63.9907507,74.4240251 C64.051479,75.3194025 63.6082958,76.1738502 62.8413552,76.6400683 C62.0746685,77.106096 61.1118998,77.106096 60.3449593,76.6400683 C59.5782725,76.1738502 59.1350893,75.3194025 59.1958176,74.4240251 C59.1405466,63.9412562 62.1388869,55.8725797 68.1132307,50.3609639 C77.2512836,41.9725278 89.9384196,42.8544523 90.9306957,42.9315525 L88.7260748,40.6498314 C88.2649966,40.1634974 88.0163724,39.5135714 88.0349652,38.8435296 C88.0538754,38.1738051 88.3379087,37.5387281 88.8251945,37.0784114 C88.9389728,36.9901428 89.0606832,36.9125985 89.18912,36.8468571 C90.2123632,36.1895066 91.5583483,36.3513853 92.3966779,37.2328022 L100.035561,45.2794592 L100.145849,45.4339134 C100.205054,45.5040333 100.260389,45.5776433 100.311154,45.6542359 C100.359254,45.732859 100.403674,45.8136397 100.443271,45.8967048 L100.597726,46.1172811 C100.627995,46.2040268 100.653758,46.2922954 100.674826,46.3817696 C100.697099,46.4578545 100.715692,46.5352085 100.729843,46.613324 C100.734602,46.6792558 100.734602,46.7456952 100.729843,46.8116269 Z M84.9909169,95.3934908 L34.8882377,95.3934908 C33.397317,95.3934908 31.9674418,94.8013107 30.9132951,93.7471006 C29.8587677,92.6927635 29.2665876,91.2627614 29.2665876,89.7717772 L29.2665876,40.6217136 C29.2665876,39.1307294 29.8587677,37.7008542 30.9132951,36.6467075 C31.9674418,35.5924974 33.397317,35 34.8882377,35 L73.7144287,35 C75.2669026,35 76.5253806,36.258478 76.5253806,37.8110154 C76.5253806,39.3632356 75.2669026,40.6217136 73.7144287,40.6217136 L34.8882377,40.6217136 L34.8882377,89.7717772 L84.9909169,89.7717772 L84.9909169,59.217452 C84.9909169,58.2129921 85.5265569,57.2851248 86.3961708,56.78299 C87.265975,56.2810456 88.3372551,56.2810456 89.2070593,56.78299 C90.0766732,57.2851248 90.612567,58.2129921 90.612567,59.217452 L90.612567,89.7717772 C90.612567,91.2627614 90.0201331,92.6927635 88.9659229,93.7471006 C87.9116494,94.8013107 86.4816473,95.3934908 84.9909169,95.3934908 Z" id="Combined-Shape" fill="url(#linearGradient-1)"></path>
                </g>
            </g>
        </g>
    </g>
</svg>